<?xml version="1.0" encoding="UTF-8" standalone="no"?>
<svg
   xmlns:dc="http://purl.org/dc/elements/1.1/"
   xmlns:cc="http://creativecommons.org/ns#"
   xmlns:rdf="http://www.w3.org/1999/02/22-rdf-syntax-ns#"
   xmlns:svg="http://www.w3.org/2000/svg"
   xmlns="http://www.w3.org/2000/svg"
   xmlns:sodipodi="http://sodipodi.sourceforge.net/DTD/sodipodi-0.dtd"
   xmlns:inkscape="http://www.inkscape.org/namespaces/inkscape"
   width="297mm"
   height="210mm"
   viewBox="0 0 297 210"
   version="1.1"
   id="svg8"
   inkscape:version="1.0rc1 (09960d6f05, 2020-04-09)"
   sodipodi:docname="hack_togone.svg">
  <defs
     id="defs2">
    <filter
       id="GaussianBlur">
      <feGaussianBlur
         id="feGaussianBlur848"
         stdDeviation="2.7961191" />
    </filter>
  </defs>
  <sodipodi:namedview
     inkscape:pagecheckerboard="false"
     id="base"
     pagecolor="#ffffff"
     bordercolor="#666666"
     borderopacity="1.0"
     inkscape:pageopacity="0.0"
     inkscape:pageshadow="2"
     inkscape:zoom="0.9899495"
     inkscape:cx="571.1568"
     inkscape:cy="272.60438"
     inkscape:document-units="mm"
     inkscape:current-layer="layer1"
     inkscape:document-rotation="0"
     showgrid="false"
     showguides="true"
     inkscape:window-width="1870"
     inkscape:window-height="1040"
     inkscape:window-x="50"
     inkscape:window-y="0"
     inkscape:window-maximized="1" />
  <metadata
     id="metadata5">
    <rdf:RDF>
      <cc:Work
         rdf:about="">
        <dc:format>image/svg+xml</dc:format>
        <dc:type
           rdf:resource="http://purl.org/dc/dcmitype/StillImage" />
        <dc:title></dc:title>
      </cc:Work>
    </rdf:RDF>
  </metadata>
  <g
     inkscape:label="Calque 1"
     inkscape:groupmode="layer"
     id="layer1">
    <path
       inkscape:export-ydpi="171.64"
       inkscape:export-xdpi="171.64"
       inkscape:export-filename="/home/shadowx/text994.png"
       inkscape:connector-curvature="0"
       d="M 300.28128,-3.5759829 H -2.7926197 V 213.61581 H 300.28128 Z"
       style="fill:#000000;fill-opacity:1;stroke:none;stroke-width:0.755934;stroke-miterlimit:4;stroke-dasharray:none;stroke-opacity:1"
       id="rect896" />
    <path
       inkscape:connector-curvature="0"
       inkscape:export-ydpi="171.64"
       inkscape:export-xdpi="171.64"
       inkscape:export-filename="/home/shadowx/text994.png"
       d="m 144.09948,36.162174 37.1522,38.037514 h 20.15613 c -0.28282,-0.259864 -0.62296,-0.5443 -1.04168,-0.864395 L 161.75368,38.09691 c -1.40417,-1.219278 -3.26218,-1.910336 -5.20193,-1.934736 z M 55.519716,129.36028 c 0.600114,1.22566 1.821239,2.42849 2.559685,3.10662 l 38.612449,35.23881 c 1.40416,1.21927 3.262185,1.91028 5.20195,1.93473 h 54.65795 c 1.93975,-0.0245 3.79776,-0.71546 5.20193,-1.93473 l 38.61245,-35.23881 c 0.94239,-0.86542 1.59768,-1.94182 1.91214,-3.10662 h -19.23566 l -29.56793,26.93359 H 104.97086 L 75.402914,129.36028 Z"
       style="fill:#550000;stroke-width:6.99278"
       id="path833" />
    <path
       inkscape:connector-curvature="0"
       inkscape:export-ydpi="171.64"
       inkscape:export-xdpi="171.64"
       inkscape:export-filename="/home/shadowx/text994.png"
       d="m 143.59551,35.646298 13.03718,13.347778 h 33.75585 l 27.67125,25.205612 h 20.77236 C 238.48781,73.812819 237.9965,73.367186 237.28,72.819417 L 198.66753,37.581035 c -1.40414,-1.21928 -3.26217,-1.910332 -5.20192,-1.934737 z M 93.245859,129.36028 c 0.353304,0.96569 0.945982,1.85477 1.747403,2.59075 l 38.612458,35.2388 c 1.40415,1.21927 3.26218,1.91036 5.20193,1.93473 h 54.65796 c 1.93975,-0.0246 3.79778,-0.71546 5.20192,-1.93473 L 237.28,131.95103 c 0.80142,-0.73598 1.39409,-1.62506 1.74739,-2.59075 H 219.39028 L 190.38854,155.778 h -48.50382 l -29.00174,-26.41772 z"
       style="fill:#800000;stroke-width:6.99278"
       id="path833-3" />
    <text
       inkscape:export-ydpi="171.64"
       inkscape:export-xdpi="171.64"
       inkscape:export-filename="/home/shadowx/text994.png"
       transform="matrix(0.74227222,0.67020043,-0.67110679,0.74126975,0,0)"
       xml:space="preserve"
       style="font-style:normal;font-weight:normal;font-size:6.65972px;line-height:1.25;font-family:sans-serif;letter-spacing:0px;word-spacing:0px;fill:#000000;fill-opacity:1;stroke:none;stroke-width:0.208116"
       x="138.78783"
       y="55.341682"
       id="text1107"><tspan
         sodipodi:role="line"
         id="tspan1105"
         x="138.78783"
         y="55.341682"
         style="font-style:normal;font-variant:normal;font-weight:normal;font-stretch:normal;font-family:'Quicksand Light';-inkscape-font-specification:'Quicksand Light, ';fill:#000000;stroke-width:0.208116"> Vincit improbus</tspan></text>
    <g
       style="font-style:normal;font-variant:normal;font-weight:normal;font-stretch:normal;font-size:22.0781px;line-height:1.25;font-family:'Fira Code';-inkscape-font-specification:'Fira Code';letter-spacing:0px;word-spacing:0px;fill:#ffffff;fill-opacity:1;stroke:none;stroke-width:0.551953"
       id="text875"
       transform="scale(1.000676,0.99932446)"
       aria-label="Hack'togone">
      <path
         id="path850"
         style="fill:#800000;stroke-width:0.551953"
         d="m 147.38602,93.434238 q 0.1987,0 0.33117,0.132469 0.13247,0.132468 0.13247,0.331171 v 14.527392 q -0.0221,0.1987 -0.15454,0.33117 -0.13247,0.13247 -0.3091,0.13247 -0.22078,0 -0.35325,-0.13247 -0.11039,-0.13247 -0.11039,-0.33117 v -7.04292 h -9.62605 v 7.04292 q -0.0221,0.1987 -0.15455,0.33117 -0.13247,0.13247 -0.30909,0.13247 -0.22078,0 -0.35325,-0.13247 -0.11039,-0.13247 -0.11039,-0.33117 V 93.897878 q 0,-0.198703 0.13247,-0.331171 0.13247,-0.132469 0.33117,-0.132469 0.1987,0 0.33117,0.132469 0.13247,0.132468 0.13247,0.331171 v 6.601352 h 9.62605 v -6.601352 q 0,-0.198703 0.13247,-0.331171 0.13247,-0.132469 0.33117,-0.132469 z" />
      <path
         id="path852"
         style="fill:#800000;stroke-width:0.551953"
         d="m 160.91988,97.871936 q 0.19871,0 0.3091,0.132469 0.13246,0.132469 0.13246,0.309093 v 10.133852 q 0,0.17662 -0.13246,0.30909 -0.13247,0.13247 -0.3091,0.13247 -0.1987,0 -0.33117,-0.13247 -0.11039,-0.13247 -0.11039,-0.30909 v -1.98703 q -0.55195,1.12598 -1.70001,1.89871 -1.14806,0.75066 -2.53898,0.75066 -1.45716,0 -2.6273,-0.75066 -1.17014,-0.77273 -1.83248,-2.09742 -0.66234,-1.34676 -0.66234,-3.00262 0,-1.63378 0.66234,-2.93638 0.68442,-1.324691 1.85456,-2.053268 1.17014,-0.750655 2.60522,-0.750655 1.43507,0 2.58313,0.750655 1.14806,0.750656 1.65586,2.009108 v -1.964952 q 0,-0.176624 0.11039,-0.309093 0.13247,-0.132469 0.33117,-0.132469 z m -4.6364,10.398784 q 1.2143,0 2.18573,-0.64026 0.99352,-0.66235 1.54547,-1.81041 0.55195,-1.14806 0.55195,-2.56106 0,-1.34676 -0.55195,-2.47274 -0.55195,-1.125987 -1.54547,-1.766252 -0.97143,-0.662343 -2.18573,-0.662343 -1.21429,0 -2.20781,0.640264 -0.97144,0.618187 -1.52339,1.744171 -0.55195,1.1039 -0.55195,2.5169 0,1.413 0.55195,2.56106 0.55195,1.14806 1.52339,1.81041 0.97144,0.64026 2.20781,0.64026 z" />
      <path
         id="path854"
         style="fill:#800000;stroke-width:0.551953"
         d="m 169.81734,97.518687 q 0.94936,0 1.83248,0.220781 0.90521,0.220781 1.43508,0.596108 0.55195,0.35325 0.55195,0.750656 0,0.176625 -0.13246,0.309093 -0.1104,0.132469 -0.28702,0.132469 -0.1987,0 -0.30909,-0.06623 -0.0883,-0.06624 -0.26494,-0.24286 -0.28702,-0.331171 -0.59611,-0.485718 -0.79481,-0.375327 -2.25197,-0.375327 -1.25845,0 -2.34027,0.662343 -1.05975,0.662343 -1.70002,1.810402 -0.61818,1.12598 -0.61818,2.47275 0,1.413 0.57403,2.56106 0.5961,1.12598 1.65585,1.76625 1.08183,0.64026 2.42859,0.64026 0.88313,0 1.39092,-0.15455 0.5078,-0.15454 1.0156,-0.44156 0.35325,-0.22078 0.61818,-0.48572 0.11039,-0.11039 0.22079,-0.17662 0.11039,-0.0883 0.22078,-0.0883 0.17662,0 0.26493,0.11039 0.11039,0.11039 0.11039,0.28701 0,0.3091 -0.50779,0.75066 -0.5078,0.41948 -1.413,0.72858 -0.88312,0.30909 -1.98703,0.30909 -1.58962,0 -2.84807,-0.75066 -1.23638,-0.75065 -1.94288,-2.07534 -0.68442,-1.32468 -0.68442,-2.98054 0,-1.54547 0.68442,-2.87015 0.7065,-1.32469 1.96495,-2.119502 1.28053,-0.794811 2.91431,-0.794811 z" />
      <path
         id="path856"
         style="fill:#800000;stroke-width:0.551953"
         d="m 185.00704,108.11617 q 0.13247,0.13247 0.13247,0.33118 0,0.1987 -0.17662,0.33117 -0.15455,0.11039 -0.26494,0.11039 -0.17662,0 -0.33117,-0.15455 l -5.16628,-5.49745 -1.85456,1.54547 v 3.66497 q 0,0.17662 -0.13246,0.30909 -0.1104,0.13247 -0.3091,0.13247 -0.1987,0 -0.33117,-0.13247 -0.11039,-0.13247 -0.11039,-0.30909 V 92.992676 q 0,-0.176625 0.11039,-0.309093 0.13247,-0.132469 0.33117,-0.132469 0.1987,0 0.3091,0.132469 0.13246,0.132468 0.13246,0.309093 v 10.685804 l 6.93253,-5.806544 q 0.13247,-0.132468 0.28701,-0.132468 0.17663,0 0.3091,0.132468 0.13246,0.132469 0.13246,0.331172 0,0.198703 -0.15454,0.331171 l -4.96757,4.128601 z" />
      <path
         id="path858"
         style="font-style:normal;font-variant:normal;font-weight:normal;font-stretch:normal;font-family:'Quicksand Light';-inkscape-font-specification:'Quicksand Light, ';fill:#ffffff;stroke-width:0.551953"
         d="m 187.76677,93.853722 q 0.0662,-0.419484 0.48572,-0.419484 h 0.72857 q 0.3091,0.02208 0.19871,0.419484 l -1.36885,4.813026 q -0.0883,0.375328 -0.50779,0.375328 -0.24286,0 -0.17663,-0.46364 z" />
      <path
         id="path860"
         style="font-style:normal;font-variant:normal;font-weight:normal;font-stretch:normal;font-family:'Quicksand Light';-inkscape-font-specification:'Quicksand Light, ';fill:#ffffff;stroke-width:0.551953"
         d="m 196.15641,97.783624 q 0.15455,0 0.28701,0.132469 0.13247,0.132468 0.13247,0.287015 0,0.176625 -0.13247,0.309093 -0.11039,0.110391 -0.28701,0.110391 h -2.42859 v 7.859808 q 0,0.97143 0.33117,1.3026 0.35325,0.3091 0.88312,0.3091 0.0883,0 0.24286,-0.0442 0.17663,-0.0442 0.28702,-0.0442 0.15454,0 0.26493,0.13247 0.1104,0.11039 0.1104,0.26494 0,0.1987 -0.26494,0.35325 -0.26494,0.13247 -0.61819,0.13247 -0.55195,0 -0.92728,-0.0662 -0.37533,-0.0883 -0.79481,-0.5961 -0.39741,-0.52988 -0.39741,-1.70002 v -7.903958 h -1.8104 q -0.15455,0 -0.28702,-0.132469 -0.13246,-0.132468 -0.13246,-0.287015 0,-0.176625 0.11039,-0.287015 0.13246,-0.132469 0.30909,-0.132469 h 1.8104 v -2.803919 q 0,-0.176625 0.13247,-0.309093 0.13247,-0.132469 0.3091,-0.132469 0.1987,0 0.30909,0.132469 0.13247,0.132468 0.13247,0.309093 v 2.803919 z" />
      <path
         id="path862"
         style="font-style:normal;font-variant:normal;font-weight:normal;font-stretch:normal;font-family:'Quicksand Light';-inkscape-font-specification:'Quicksand Light, ';fill:#ffffff;stroke-width:0.551953"
         d="m 209.02792,103.32523 q 0,1.63378 -0.7065,2.95846 -0.7065,1.30261 -1.96495,2.07534 -1.23638,0.75066 -2.75977,0.75066 -1.52339,0 -2.78184,-0.75066 -1.23637,-0.77273 -1.96495,-2.09742 -0.7065,-1.32468 -0.7065,-2.93638 0,-1.63378 0.7065,-2.95847 0.72858,-1.324684 1.96495,-2.07534 1.23638,-0.772733 2.78184,-0.772733 1.52339,0 2.75977,0.772733 1.25845,0.750656 1.96495,2.07534 0.7065,1.32469 0.7065,2.95847 z m -0.88313,0 q 0,-1.413 -0.59611,-2.53898 -0.57403,-1.125987 -1.6117,-1.766252 -1.03767,-0.662343 -2.34028,-0.662343 -1.28053,0 -2.34028,0.662343 -1.03767,0.640265 -1.63377,1.766252 -0.59611,1.12598 -0.59611,2.53898 0,1.39092 0.59611,2.5169 0.5961,1.12598 1.63377,1.78833 1.05975,0.64026 2.34028,0.64026 1.30261,0 2.34028,-0.64026 1.03767,-0.64027 1.6117,-1.76625 0.59611,-1.14806 0.59611,-2.53898 z" />
      <path
         id="path864"
         style="font-style:normal;font-variant:normal;font-weight:normal;font-stretch:normal;font-family:'Quicksand Light';-inkscape-font-specification:'Quicksand Light, ';fill:#ffffff;stroke-width:0.551953"
         d="m 221.39163,97.871936 q 0.1987,0 0.30909,0.132469 0.13247,0.132469 0.13247,0.309093 v 9.493582 q 0,1.67794 -0.68442,2.91431 -0.68442,1.23637 -1.9208,1.89872 -1.23637,0.68442 -2.82599,0.68442 -0.88313,0 -1.78833,-0.24286 -0.9052,-0.22078 -1.50131,-0.59611 -0.57403,-0.35325 -0.57403,-0.72858 0,-0.17662 0.0883,-0.28701 0.11039,-0.11039 0.28702,-0.11039 0.13246,0 0.3974,0.22078 0.30909,0.30909 0.68442,0.46364 1.08183,0.44156 2.45067,0.44156 2.07534,0 3.28964,-1.28053 1.21429,-1.28053 1.21429,-3.37795 v -1.52339 q -0.5961,1.413 -1.85456,2.1195 -1.23637,0.7065 -2.60521,0.7065 -1.50131,0 -2.73769,-0.75066 -1.21429,-0.77273 -1.92079,-2.09742 -0.68442,-1.32468 -0.68442,-2.95846 0,-1.63378 0.68442,-2.95847 0.7065,-1.324682 1.92079,-2.075338 1.23638,-0.750655 2.73769,-0.750655 1.47923,0 2.69353,0.794811 1.23637,0.772734 1.76624,1.876642 v -1.876642 q 0,-0.176624 0.11039,-0.309093 0.13247,-0.132469 0.33118,-0.132469 z m -4.85719,10.398784 q 1.28053,0 2.29613,-0.61819 1.03767,-0.64026 1.6117,-1.76624 0.59611,-1.12599 0.59611,-2.58314 0,-1.45716 -0.59611,-2.58314 -0.57403,-1.125982 -1.6117,-1.744169 -1.0156,-0.618186 -2.29613,-0.618186 -1.28053,0 -2.3182,0.640264 -1.01559,0.640265 -1.6117,1.766251 -0.57403,1.12598 -0.57403,2.53898 0,1.413 0.57403,2.53898 0.59611,1.12598 1.6117,1.78833 1.03767,0.64026 2.3182,0.64026 z" />
      <path
         id="path866"
         style="font-style:normal;font-variant:normal;font-weight:normal;font-stretch:normal;font-family:'Quicksand Light';-inkscape-font-specification:'Quicksand Light, ';fill:#ffffff;stroke-width:0.551953"
         d="m 235.16834,103.32523 q 0,1.63378 -0.7065,2.95846 -0.7065,1.30261 -1.96495,2.07534 -1.23637,0.75066 -2.75976,0.75066 -1.52339,0 -2.78184,-0.75066 -1.23637,-0.77273 -1.96495,-2.09742 -0.7065,-1.32468 -0.7065,-2.93638 0,-1.63378 0.7065,-2.95847 0.72858,-1.324684 1.96495,-2.07534 1.23637,-0.772733 2.78184,-0.772733 1.52339,0 2.75976,0.772733 1.25845,0.750656 1.96495,2.07534 0.7065,1.32469 0.7065,2.95847 z m -0.88312,0 q 0,-1.413 -0.59611,-2.53898 -0.57403,-1.125987 -1.6117,-1.766252 -1.03767,-0.662343 -2.34028,-0.662343 -1.28053,0 -2.34028,0.662343 -1.03767,0.640265 -1.63378,1.766252 -0.59611,1.12598 -0.59611,2.53898 0,1.39092 0.59611,2.5169 0.59611,1.12598 1.63378,1.78833 1.05975,0.64026 2.34028,0.64026 1.30261,0 2.34028,-0.64026 1.03767,-0.64027 1.6117,-1.76625 0.59611,-1.14806 0.59611,-2.53898 z" />
      <path
         id="path868"
         style="font-style:normal;font-variant:normal;font-weight:normal;font-stretch:normal;font-family:'Quicksand Light';-inkscape-font-specification:'Quicksand Light, ';fill:#ffffff;stroke-width:0.551953"
         d="m 243.07228,97.518687 q 1.96495,0 2.95846,1.170139 0.99352,1.148061 0.99352,3.002624 v 6.7559 q 0,0.17662 -0.13247,0.30909 -0.13247,0.13247 -0.3091,0.13247 -0.1987,0 -0.33117,-0.13247 -0.11039,-0.13247 -0.11039,-0.30909 v -6.66759 q 0,-1.50131 -0.79481,-2.450669 -0.77273,-0.971436 -2.36236,-0.971436 -0.97143,0 -1.92079,0.46364 -0.92728,0.46364 -1.52339,1.258455 -0.59611,0.79481 -0.59611,1.70001 v 6.66759 q 0,0.17662 -0.13247,0.30909 -0.13247,0.13247 -0.30909,0.13247 -0.1987,0 -0.33117,-0.13247 -0.11039,-0.13247 -0.11039,-0.30909 V 98.313498 q 0,-0.176624 0.13247,-0.309093 0.13247,-0.132469 0.30909,-0.132469 0.1987,0 0.30909,0.132469 0.13247,0.132469 0.13247,0.309093 v 1.479233 q 0.64027,-0.993514 1.78833,-1.633779 1.17014,-0.640265 2.34028,-0.640265 z" />
      <path
         id="path870"
         style="font-style:normal;font-variant:normal;font-weight:normal;font-stretch:normal;font-family:'Quicksand Light';-inkscape-font-specification:'Quicksand Light, ';fill:#ffffff;stroke-width:0.551953"
         d="m 259.41004,106.23954 q 0.15455,0 0.26494,0.13246 0.11039,0.1104 0.11039,0.26494 0,0.15455 -0.0883,0.26494 -0.72858,0.97144 -1.8104,1.58962 -1.08183,0.61819 -2.31821,0.61819 -1.65585,0 -2.93638,-0.7065 -1.28053,-0.7065 -2.00911,-2.00911 -0.7065,-1.3026 -0.7065,-3.0247 0,-1.76624 0.68442,-3.09093 0.7065,-1.346765 1.85456,-2.053264 1.14806,-0.706499 2.45067,-0.706499 1.30261,0 2.40651,0.57403 1.12599,0.551953 1.83249,1.677936 0.7065,1.125987 0.75065,2.781837 0,0.17663 -0.13247,0.33118 -0.13246,0.13246 -0.30909,0.13246 h -8.67669 v 0.28702 q 0,1.36884 0.55195,2.5169 0.55195,1.12599 1.63378,1.78833 1.08183,0.66234 2.60521,0.66234 1.05975,0 1.98703,-0.50779 0.94936,-0.52988 1.47924,-1.32469 0.15454,-0.1987 0.37532,-0.1987 z m -4.50393,-7.837729 q -0.81689,0 -1.67793,0.441562 -0.83897,0.419484 -1.50131,1.280527 -0.64027,0.83897 -0.86105,2.05327 h 8.12474 v -0.19871 q -0.11039,-1.12598 -0.72858,-1.92079 -0.59611,-0.816891 -1.50131,-1.236375 -0.88312,-0.419484 -1.85456,-0.419484 z" />
    </g>
    <g
       inkscape:export-ydpi="171.64"
       inkscape:export-xdpi="171.64"
       inkscape:export-filename="/home/shadowx/text994.png"
       style="fill:#ffffff"
       transform="matrix(0.20825641,0,0,0.20797515,-67.480761,-35.193507)"
       id="svgg-3">
      <path
         inkscape:connector-curvature="0"
         transform="translate(399.12428,209.86276)"
         d="m 430.78516,177.33398 c -5.80169,0.12309 -8.5718,1.97783 -6.80078,4.8125 0.38931,0.62118 0.95949,4.38845 1.26562,8.3711 0.80247,10.32816 1.44379,13.02649 3.46484,14.52148 0.12869,0.0951 0.23445,0.20192 0.35547,0.30078 0.44063,0.0384 0.86686,0.13114 1.27539,0.27735 0,0 3.55089,8.5297 2.85157,18.45898 -1.70786,4.99893 -4.25378,9.34325 -7.48243,11.46094 -0.68787,0.74773 -1.46612,1.52653 -2.35546,2.33984 -7.69484,7.03503 -11.72783,8.32227 -26.06836,8.32227 -16.93819,0 -21.1195,-0.94143 -23.28321,-5.24805 -0.76681,-1.52767 -2.33034,-3.86668 -3.47461,-5.20117 -1.16419,-1.35769 -2.05692,-2.42127 -2.78515,-3.33008 -3.07499,-2.84058 -4.85688,-7.07639 -4.85743,-11.54687 0,-0.62817 0.0352,-1.25571 0.10547,-1.87891 -1.0231,-6.32294 1.86667,-22.75074 6.72266,-33.82422 3.04941,-6.96073 1.18252,-8.23242 -10.77734,-7.34375 -7.4006,0.54984 -10.08138,1.70503 -15.05079,6.4961 l -3.75585,3.62304 -3.97071,0.0117 c -4.19368,0.009 -11.61075,1.96094 -14.72851,3.875 -5.63814,3.4655 -7.29384,4.66561 -11.47266,8.31836 -15.44913,13.52022 -26.48984,34.78691 -31.09961,59.89844 -1.44446,7.87615 -1.45396,7.83156 2.77539,13.19922 5.11501,6.49411 5.38585,8.94963 0.79688,7.27929 -1.40285,-0.51418 -3.95789,-1.24932 -5.67578,-1.63867 -1.71492,-0.38935 -3.25544,-0.92391 -3.42188,-1.1914 -0.75789,-1.22749 -4.87401,-1.19498 -8.91016,0.0684 -4.65436,1.45932 -14.88759,1.74974 -18.72461,0.53711 -1.14423,-0.3626 -3.81827,-1.02679 -5.94335,-1.47851 -2.12507,-0.45474 -6.53928,-1.77544 -9.8086,-2.9375 -3.26934,-1.1621 -6.41178,-2.11617 -6.98242,-2.11914 -0.57065,-0.003 -2.61787,-0.55201 -4.55273,-1.2207 -2.58872,-0.89759 -4.65915,-1.17179 -7.875,-1.04102 l -4.36719,0.17578 -1.59571,3.26953 c -6.17308,12.6375 -4.35117,41.09838 3.2129,50.14258 1.96458,2.35393 10.61124,8.70508 11.84765,8.70508 0.93323,0 0.51554,2.74033 -0.98242,6.42578 -1.93485,4.76432 -2.06529,11.37357 -0.29687,15.30273 0.65383,1.45337 1.72503,3.83179 2.3789,5.28516 0.65386,1.45338 1.19141,2.85657 1.19141,3.12109 0.003,0.26452 0.42433,1.28092 0.93554,2.26172 0.51418,0.98079 1.77819,3.9236 2.8125,6.53907 4.51169,11.43374 23.12176,29.40607 30.46289,29.41796 3.95887,0.006 6.04,1.00358 5.42774,2.59961 -0.97486,2.5382 0.21803,4.32296 4.85156,7.28321 8.52407,5.44791 11.78289,7.16559 15.83985,8.35742 21.84516,6.41385 21.14405,6.35137 25.34961,2.26172 2.85915,-2.77894 5.09495,-3.57226 5.83203,-2.06836 0.87084,1.77733 1.66704,3.33621 3.57812,7.00976 3.54872,6.82104 1.30704,17.11656 -5.42187,24.88868 -6.59813,7.62645 -7.15223,26.14623 -0.80078,26.84765 0.98076,0.107 2.31491,0.66568 2.96874,1.23633 2.452,2.14588 10.75352,5.66882 15.15821,6.42969 9.66834,1.67331 8.37451,1.87735 11.55469,-1.84375 4.13126,-4.83566 5.83791,-5.72071 11.0332,-5.72071 7.50165,0 9.29383,3.04934 10.12305,17.23829 1.01944,17.41368 2.02609,21.10793 6.21679,22.8496 1.96161,0.81734 3.20833,-0.31293 3.25586,-2.94921 0.0119,-0.65981 0.72504,-2.23387 1.58399,-3.5 1.84867,-2.7195 2.24983,-2.3191 2.87695,2.86132 0.55579,4.60679 0.71349,4.9308 2.58594,5.40039 0.87677,0.21697 2.01511,0.77659 2.52929,1.24024 1.20966,1.09073 4.24542,1.34383 4.56641,0.38086 0.92434,-2.76705 3.67206,-3.20125 5.50586,-0.8711 2.55603,3.24854 11.65635,1.21449 14.04297,-3.13671 2.77597,-5.06451 4.6329,-5.68813 5.17383,-1.74415 0.96891,7.06476 5.70917,9.24878 8.97851,4.13672 2.41335,-3.76867 2.94873,-3.92662 5.03516,-1.47461 1.52173,1.78328 1.55166,1.7894 5.59375,1.28711 4.76433,-0.59145 4.88697,-0.73337 5.41601,-6.27343 0.21993,-2.33015 0.78626,-5.92563 1.25586,-7.98829 1.29287,-5.67376 1.13323,-13.58391 -0.33203,-16.46093 -1.70896,-3.35257 -0.80201,-7.98533 2.1582,-10.9961 0.80247,-0.81733 1.80359,-1.9893 2.22266,-2.60156 0.64495,-0.93919 0.97547,-1.00356 2.07813,-0.41211 1.41771,0.7579 3.38401,0.38966 4.87304,-0.91211 3.5517,-3.10886 6.14341,-1.1536 3.21289,2.42188 l -2.16992,2.64843 2.5293,2.69727 c 1.38799,1.48309 2.8931,2.69727 3.33594,2.69727 0.44582,0 1.06293,0.66703 1.375,1.48437 0.67765,1.78327 2.98456,1.96314 8.23632,0.64649 1.84569,-0.46365 4.82401,-1.03278 6.61914,-1.26758 3.15938,-0.40718 13.77591,-4.92909 14.56055,-6.20117 0.20803,-0.33287 1.12076,-0.60743 2.03321,-0.60743 1.91698,0 3.17476,-1.24832 4.13476,-4.10156 1.20966,-3.60222 0.86072,-4.72217 -2.65234,-8.58594 -1.83083,-2.01213 -3.56047,-4.24753 -3.83985,-4.96679 -1.09375,-2.82055 -3.55129,-6.04527 -4.74609,-6.22657 -1.23937,-0.19022 -1.23623,-0.21969 0.26172,-2.27343 3.43876,-4.7138 3.74413,-11.30706 0.80469,-17.29883 -2.6452,-5.39145 -0.99249,-8.1166 5.52539,-9.11524 1.45634,-0.22588 3.98642,-0.77768 5.62109,-1.23242 1.63467,-0.45472 5.64668,-1.53066 8.91602,-2.39258 7.80779,-2.05968 8.89568,-2.49721 10.73242,-4.33398 1.43256,-1.43257 5.61328,-9.48888 5.61328,-10.81445 0,-1.63764 3.26462,0.0801 4.42969,2.33007 1.38799,2.68384 3.0667,2.0257 12.3457,-4.83398 0.5647,-0.4161 2.79332,-1.95848 4.95703,-3.42969 4.79405,-3.26043 12.83349,-9.54884 15.87695,-12.41992 1.23344,-1.16211 2.74898,-2.38982 3.36719,-2.72265 2.1756,-1.17697 6.42367,-5.52739 7.66602,-7.85157 0.7787,-1.45338 2.589,-16.33587 2.44336,-20.10156 -0.0624,-1.63468 -0.0778,-3.44098 -0.0391,-4.01758 0.0416,-0.57362 3.35201,-4.35243 7.35547,-8.39453 7.69187,-7.76024 8.90015,-9.73595 10.5586,-17.28516 6.64781,-18.47786 16.85799,-64.37255 -10.57032,-57.32031 -6.46141,1.76545 -13.7844,4.06013 -15.88867,4.97852 -0.98078,0.42799 -2.98582,0.96162 -4.45703,1.1875 -1.4712,0.22589 -3.88036,0.8153 -5.35156,1.30273 -8.33386,2.77597 -28.41221,-0.66969 -30.73047,-5.26758 -0.71331,-1.41473 -3.99186,-13.38793 -4.97266,-18.1582 -0.28532,-1.38501 -0.8919,-3.25858 -1.34961,-4.16211 -0.4577,-0.90353 -1.02301,-2.69837 -1.25781,-3.98828 -1.43554,-7.92073 -4.89439,-10.50966 -9.21289,-6.89258 -4.9486,4.14315 -10.73818,3.81596 -8.21484,-0.46094 7.87912,-13.3627 7.89449,-17.66624 0.10156,-27.15625 -17.70498,-21.56281 -38.37377,-33.30529 -60.95899,-34.63086 -0.94807,-0.0554 -1.83915,-0.0723 -2.66796,-0.0547 z m 10.30078,9.04688 c 0.23523,0.01 0.47932,0.0562 0.73047,0.13867 0.46345,0.15448 2.02966,0.54332 3.47656,0.86719 h 0.002 c 1.45018,0.32404 3.34248,0.95483 4.20703,1.39453 0.86786,0.44285 2.51198,1.00145 3.65625,1.24219 2.09832,0.44285 12.65755,5.41444 15.50782,7.30468 0.84706,0.55876 2.58722,1.72113 3.86523,2.58008 5.42712,3.6468 18.25638,18.00223 19.86133,22.22266 0.69251,1.8219 -0.26181,6.40558 -1.55469,7.47852 -0.45474,0.37742 -0.82905,0.98692 -0.83203,1.35546 -0.003,0.37152 -1.2056,3.07517 -2.67383,6.01758 -5.28742,10.5897 -4.05353,13.37891 5.91797,13.37891 8.98772,0 10.12908,0.27541 11.62109,2.80469 1.31665,2.2291 3.82147,11.09419 4.4961,15.91796 1.72978,12.33731 4.65681,15.87799 15.21679,18.4043 10.17658,2.43715 12.57298,2.51978 19.01954,0.65625 11.83502,-3.42092 13.49986,-3.85815 20.41601,-5.38281 3.92321,-0.86489 9.00443,-2.06556 11.29297,-2.67188 10.00716,-2.64222 9.68138,-3.09035 8.74219,12.0586 -0.69846,11.26735 -2.48473,22.14872 -4.51172,27.46289 -0.49932,1.30774 -0.91877,2.73684 -0.93359,3.17969 -0.0149,0.43988 -0.40842,1.64445 -0.875,2.67578 -0.46366,1.02836 -1.651,3.74941 -2.63477,6.04687 -1.72087,4.00643 -5.41942,10.61083 -6.61719,11.8086 -0.31502,0.31505 -2.11659,0.52045 -4.0039,0.45507 -7.35602,-0.24669 -8.57896,6.32492 -4.62305,24.8086 l 0.81445,3.79883 -4.86719,4.82031 c -2.67789,2.65114 -6.94422,6.2917 -9.48242,8.08984 -3.26637,2.31529 -4.71713,3.73575 -4.96679,4.8711 -0.32396,1.46229 -8.63471,8.40618 -12.60547,10.53125 -2.09238,1.1205 -5.30232,-0.9168 -7.17774,-4.55469 -0.98972,-1.92297 -3.07287,-1.68095 -5.15039,0.5957 -2.0775,2.27368 -4.40795,5.55104 -4.42578,6.2168 -0.0119,0.58848 -3.15057,5.34392 -4.7793,7.24609 -3.1564,3.68247 -8.97863,6.85344 -14.85156,8.08985 -7.53138,1.58414 -7.49548,1.63512 -4.73437,-6.59766 0.97486,-2.91269 1.77725,-5.35828 1.7832,-5.43555 0.003,-0.0773 0.87645,-0.54186 1.9375,-1.02929 1.06402,-0.4904 2.33382,-1.12569 2.82422,-1.41993 0.4904,-0.29127 3.70383,-1.88461 7.14258,-3.53711 6.28903,-3.0286 12.61337,-8.25613 13.76953,-11.38281 0.38634,-1.04322 0.96485,-1.21484 4.10937,-1.21484 6.4198,0 18.85339,-9.95107 27.47852,-21.99414 1.52173,-2.12507 3.12653,-4.26546 3.5664,-4.75586 1.13239,-1.2691 3.22682,-7.49824 3.6875,-10.97266 0.72223,-5.43305 2.48236,-8.99207 6.24805,-12.62695 2.17262,-2.09535 3.64988,-4.06786 3.89063,-5.19727 0.21102,-0.99863 0.62671,-2.11294 0.91797,-2.47851 1.50089,-1.86947 4.69544,-16.69884 4,-18.57422 -1.17102,-3.16829 -14.96054,0.12657 -18.68165,4.46289 -1.09969,1.28396 -5.61124,1.22094 -6.57421,-0.0957 -0.72223,-0.98674 -1.90564,-1.18946 -8.99414,-1.53125 -8.20011,-0.3953 -14.70061,-1.84904 -19.45899,-4.35157 -0.9808,-0.51715 -1.97614,-0.93843 -2.21094,-0.9414 -1.69411,-0.0149 -11.84716,-8.49204 -14.27539,-11.92188 -3.43578,-4.85051 -6.99412,-11.48362 -6.99414,-13.04101 0,-0.3626 -0.40982,-1.45297 -0.91211,-2.42188 -0.49932,-0.96892 -1.14054,-2.89429 -1.41992,-4.2793 -2.98699,-14.71201 -4.60685,-17.92221 -8.81836,-17.48828 -5.10909,0.52607 -5.30749,0.27815 -5.79492,-7.16406 -1.08483,-16.4983 -2.70316,-21.58988 -8.78711,-27.67383 -2.72247,-2.72247 -2.99237,-2.5412 -3.9375,2.60352 -3.84,20.95649 -14.26257,38.39992 -26.92383,45.06641 -1.07591,0.56764 -2.93504,1.59757 -4.13281,2.2871 -10.99985,6.35145 -31.46201,8.99294 -43.28516,5.58985 -5.86104,-1.68817 -7.35234,-1.61998 -10.78515,0.49023 l -2.88086,1.77149 -0.91602,-1.77149 c -1.10266,-2.13399 -1.17969,-2.14044 -3.5039,-0.375 -2.86216,2.1756 -5.17614,3.20831 -8.22852,3.66602 -3.62302,0.5439 -4.00653,-0.31193 -2.25,-5.00196 0.71628,-1.91698 1.34783,-4.76191 1.4043,-6.32226 l 0.10156,-2.83594 -4.45703,-3.06445 c -5.71541,-3.92614 -8.39345,-6.35701 -11.47852,-10.41992 -1.36718,-1.80111 -2.6582,-3.4088 -2.86328,-3.57227 -0.20507,-0.16347 -1.46723,-2.35472 -2.80469,-4.86914 -2.33312,-4.38984 -3.41169,-7.7385 -5.08203,-15.79297 -0.96594,-4.67219 -0.92469,-4.64002 -4.21484,-3.38281 -3.22476,1.23045 -3.39675,1.50041 -4.81445,7.69726 -1.18588,5.17151 -1.50562,5.62382 -3.98438,5.63868 -1.37907,0.006 -1.83578,0.43088 -2.73633,2.53515 -1.71789,4.01238 -4.09791,11.22862 -4.55859,13.82032 -0.23183,1.30774 -0.76265,3.31471 -1.17578,4.45898 -1.89618,5.23986 -3.49099,16.48371 -2.68555,18.92383 0.68062,2.06563 0.64827,2.5563 -0.29687,4.15234 -1.06105,1.79814 -1.05561,1.84252 0.78711,5.55469 1.82782,3.69436 1.48792,6.75288 -0.60743,5.45703 -2.91269,-1.79814 -8.15506,0.0949 -8.16992,2.95117 -0.0178,2.91566 -13.66859,12.59444 -19.91601,14.11914 -1.63467,0.40124 -3.23948,0.92241 -3.56641,1.16016 -1.78625,1.29288 -21.52135,1.73581 -27.34375,0.60937 -9.85559,-1.90216 -12.69728,-2.57192 -14.54297,-3.41601 -1.13238,-0.52008 -3.52527,-0.9702 -5.31445,-1.00586 -5.83429,-0.10698 -5.43865,3.44129 1.48047,13.36523 1.76247,2.52631 1.93308,3.20324 2.31054,9.21289 0.51418,8.19416 3.62181,16.16617 10.27344,26.34571 4.85052,7.42141 17.69007,20.97352 21.88672,23.10156 11.05336,5.60247 18.67667,6.2627 11.50195,0.99609 -12.83663,-9.42463 -25.2806,-24.54177 -32.98437,-40.08007 -3.93209,-7.92668 -5.06056,-10.58035 -5.94922,-13.98047 -0.42502,-1.63467 -1.18139,-4.04187 -1.67774,-5.34961 -2.36284,-6.23256 -1.30914,-7.24281 5.63672,-5.41797 3.07913,0.8114 8.23524,1.77981 11.45703,2.1543 l 5.86329,0.68359 1.59961,-1.5332 c 1.60194,-1.53362 3.61718,-2.05893 3.61718,-0.94141 0,2.22316 5.21904,3.12627 12.03711,2.08008 8.15848,-1.24829 20.01656,-5.06558 21.25,-6.83399 0.16344,-0.23777 1.10122,-0.84435 2.08203,-1.34961 4.82674,-2.49065 12.35673,-11.00208 15.89649,-17.96875 0.8322,-1.63468 2.07413,-4.07736 2.76367,-5.42968 0.68656,-1.35232 1.25586,-2.82371 1.25586,-3.26953 0.003,-0.44582 0.4003,-1.57169 0.88476,-2.50196 0.48446,-0.92731 1.27437,-2.93428 1.75586,-4.45898 1.85758,-5.8759 3.2225,-9.49636 4.60157,-12.21289 l 1.43554,-2.82032 3.35938,4.94336 c 5.64408,8.3071 16.80413,18.76865 22.86133,21.43164 0.90948,0.40124 1.78966,0.90031 1.95312,1.11133 0.33883,0.43393 8.07082,4.09961 8.65039,4.09961 0.211,0 1.22453,0.37042 2.25586,0.82813 11.06525,4.8951 31.71093,7.07404 45.11524,4.76172 7.29658,-1.26018 8.74677,-2.45153 8.76757,-7.21289 0.0208,-4.37795 2.96656,-6.68452 5.92383,-4.63672 1.1918,0.82625 2.60565,1.5039 3.14063,1.5039 0.53498,0 1.12053,0.2371 1.29882,0.52539 0.17833,0.29127 1.32613,0.17035 2.5625,-0.26953 1.22749,-0.43988 2.72869,-0.80936 3.33204,-0.82422 4.21448,-0.10105 12.27734,-4.06951 12.27734,-6.04296 0,-0.20805 0.78805,-0.70331 1.74805,-1.10157 1.46229,-0.60632 4.4613,-3.52897 7.92383,-7.72265 2.39847,-2.90377 6.37695,-9.75009 6.37695,-10.97461 0,-3.21584 3.82006,-4.08091 4.79492,-1.08203 0.39827,1.22749 1.0884,2.75739 1.53125,3.40234 0.44582,0.64196 0.81725,1.57779 0.82617,2.08008 0.0119,0.49932 0.67609,2.24423 1.47852,3.8789 0.80545,1.63467 1.46578,3.28456 1.46875,3.66797 0.003,0.38043 0.37729,1.44966 0.83203,2.37696 0.45176,0.92434 1.53923,3.28839 2.41601,5.25 0.87381,1.9616 1.84324,3.96663 2.15235,4.45703 0.30613,0.4904 0.88299,1.56156 1.28125,2.3789 4.22637,8.70537 15.40483,18.95368 19.88086,18.22852 1.80701,-0.29424 2.0648,-0.14698 2.79297,1.59766 2.63628,6.31277 35.7193,10.42991 43.54492,5.42187 1.56631,-1.00161 7.74915,-1.31334 8.6289,-0.43359 0.79059,0.79058 -0.29772,7.79297 -1.60546,10.32226 -0.47257,0.91244 -0.85938,2.10743 -0.85938,2.6543 0,0.89457 -0.61125,2.45419 -4.17187,10.6543 -0.56767,1.30774 -1.2022,2.77913 -1.4043,3.26953 -2.32124,5.61436 -17.55276,28.31522 -19.74024,29.42383 -0.64793,0.32689 -2.30651,1.64088 -3.68554,2.92187 -3.73894,3.46848 -5.62875,5.11699 -9.26367,8.07422 -1.80705,1.4712 -3.2996,3.01079 -3.31446,3.41797 -0.0178,0.41015 -0.60903,0.74414 -1.3164,0.74414 -0.70736,0 -1.71136,0.40795 -2.22852,0.9043 -1.09671,1.05507 -7.98659,5.58692 -10.15625,6.68359 -0.81733,0.41016 -2.95101,1.54858 -4.74023,2.52344 -5.439,2.96619 -6.24083,2.77575 -6.33594,-1.49219 -0.34179,-14.81607 -1.23142,-19.90203 -4.10547,-23.48047 -0.39529,-0.4904 -1.03932,-1.96183 -1.43164,-3.26953 -1.28396,-4.27689 -1.19821,-4.12211 -1.95313,-3.36719 -0.9273,0.92731 -2.83203,0.88292 -2.83203,-0.0684 0,-0.4161 -0.53558,-1.21561 -1.18945,-1.77734 -0.65387,-0.55876 -1.18945,-1.42545 -1.18945,-1.92774 0,-2.62141 -7.97647,-11.78326 -14.48242,-16.63671 -2.19344,-1.63467 -6.1623,-4.64369 -8.81641,-6.68555 l -4.82813,-3.7168 -9.56445,-0.0371 c -5.26067,-0.0208 -11.70483,-0.26267 -14.32031,-0.53906 -2.61547,-0.27641 -7.56524,-0.79849 -10.99805,-1.16406 -3.43281,-0.36557 -9.15041,-1.21689 -12.70508,-1.89453 -8.44382,-1.60495 -15.18687,-0.27325 -24.18945,4.77343 -0.51418,0.28532 -2.78796,1.25485 -5.05273,2.14649 -2.26476,0.89461 -5.85931,2.4274 -7.98438,3.4082 -2.12507,0.9808 -5.0659,2.3159 -6.53711,2.9668 -1.4712,0.65387 -4.5474,2.05427 -6.83594,3.10937 -2.28854,1.05808 -4.83109,2.22911 -5.64843,2.59766 -0.81733,0.37147 -1.88656,0.92629 -2.37696,1.23242 -0.4904,0.3091 -2.49737,1.33128 -4.45898,2.27344 -1.9616,0.93919 -4.10005,2.01332 -4.75391,2.3789 -20.28182,11.39217 -26.23905,15.04731 -28.03125,17.20508 -2.30637,2.78192 -2.54108,11.505 -0.27929,10.53906 0.53201,-0.22882 1.80379,-0.71929 2.82617,-1.09374 1.91108,-0.69845 3.17851,-2.04506 6.74804,-7.16602 1.13238,-1.62576 2.53075,-3.42918 3.11329,-4.01172 0.58253,-0.58254 1.05859,-1.3254 1.05859,-1.65234 0,-0.32693 0.30621,-0.59375 0.67773,-0.59375 0.37152,0 1.02039,-0.4674 1.43946,-1.04102 0.96297,-1.31665 1.73105,-0.63225 0.9375,0.83594 -0.72223,1.33152 -5.7107,12.2266 -8.25782,18.03711 -0.50229,1.14427 -1.14444,2.48225 -1.42382,2.97265 -0.27938,0.4904 -0.78618,1.55962 -1.125,2.37696 -4.16099,10.06958 -3.69932,9.6592 -8,7.12695 -1.63467,-0.96 -3.97369,-2.18377 -5.20118,-2.71875 -1.22451,-0.53201 -2.22851,-1.19149 -2.22851,-1.45898 0,-0.27046 -0.55673,-0.66586 -1.23438,-0.88282 -0.67764,-0.214 -3.6166,-2.00018 -6.52929,-3.9707 -5.50439,-3.71813 -8.38484,-4.41158 -6.25977,-1.50781 0.53499,0.73412 1.25382,2.05375 1.60156,2.93945 0.7995,2.03888 5.54917,4.79649 19.61329,11.38867 5.37357,2.52037 6.12566,3.28127 5.5996,5.67383 -0.79951,3.63194 -7.92317,6.70855 -13.23437,5.71289 -11.23763,-2.10724 -21.60693,-7.7632 -25.94922,-14.15625 -3.94104,-5.79863 -3.79853,-5.70096 -10.17969,-7.15429 l -5.92968,-1.35157 -8.28125,-8.28906 c -10.08444,-10.09633 -11.93912,-12.45747 -13.19336,-16.80273 -0.53498,-1.85758 -1.34028,-3.90779 -1.78907,-4.55274 -0.44582,-0.64198 -0.81054,-1.55196 -0.81054,-2.01562 0,-0.46365 -0.51834,-1.93981 -1.14844,-3.28321 -4.7554,-10.13199 -4.83685,-10.69331 -2.7207,-18.49218 0.44582,-1.63467 0.98802,-4.4911 1.21093,-6.34571 0.45474,-3.7746 0.99249,-2.96378 -6.89257,-10.35547 -7.77509,-7.29064 -9.43505,-10.5482 -10.63282,-20.84961 -0.34774,-2.99888 -0.89869,-6.84478 -1.22265,-8.55078 -1.8665,-9.83478 1.68013,-19.86267 5.68359,-16.07617 2.27962,2.15479 15.31575,5.56101 34.50977,9.01758 l 6.59765,1.18945 6.47852,-1.28125 c 7.26983,-1.43554 11.04138,-1.59544 15.39258,-0.65625 5.05262,1.09078 19.50705,3.62832 21.67968,3.80664 2.58575,0.21103 3.06037,-1.17723 1.08985,-3.19531 -2.72243,-2.79083 -7.0643,-8.09275 -8.92188,-10.89844 l -1.89843,-2.86914 2.63281,-2.26758 2.63281,-2.26757 -1.77148,-3.28125 c -0.97486,-1.80706 -1.96442,-3.28321 -2.19922,-3.28321 -2.49659,-0.0119 -2.36556,-11.15704 0.1875,-16.16211 0.62415,-1.22155 1.13281,-2.51443 1.13281,-2.87109 0,-0.35666 0.50103,-1.77438 1.11328,-3.14453 2.74625,-6.13444 3.64158,-8.33781 3.64453,-8.95899 0.003,-0.36854 0.43105,-1.47037 0.95117,-2.45117 0.52012,-0.98081 1.29951,-2.93403 1.73047,-4.33984 1.41473,-4.61568 11.01711,-14.9 18.98242,-20.33008 1.20074,-0.81733 2.49933,-1.77038 2.88868,-2.12109 7.02314,-6.32469 14.08528,-8.10851 19.32812,-4.88672 2.11912,1.30476 2.4641,1.23249 6.3457,-1.30274 0.98081,-0.64198 2.58561,-1.60462 3.56641,-2.14257 0.9808,-0.54093 2.38885,-1.53329 3.12891,-2.21094 3.73003,-3.412 6.55077,1.9441 4.63672,8.80078 -0.54985,1.96161 -1.2332,4.77098 -1.52149,6.24219 -0.68656,3.48631 -0.69814,18.63701 -0.0176,21.69531 0.80545,3.62006 2.47844,8.21256 3.37305,9.26172 0.44285,0.51418 0.80273,1.27437 0.80273,1.6875 0,1.71195 9.86416,10.45001 14.58985,12.92578 10.83936,5.67082 39.86537,4.67787 49.36133,-1.69141 14.07006,-9.43354 19.36741,-28.04154 13.67578,-48.04101 -2.17333,-7.63465 -0.49786,-15.3848 3.03125,-15.23633 z m -70.24805,145.42383 c -1.39893,-0.0553 -3.3522,0.25756 -3.82031,0.82226 -0.37746,0.45771 -1.56387,0.99125 -2.63086,1.19336 -1.06997,0.19913 -2.98957,0.89793 -4.26758,1.54883 -1.27505,0.6509 -2.76665,1.18359 -3.31055,1.18359 -0.5439,0 -1.29739,0.36855 -1.67187,0.82032 -0.37449,0.45176 -1.53678,0.99015 -2.58594,1.20117 -1.71492,0.34175 -3.47387,1.04808 -9.06445,3.63086 -0.9808,0.45474 -2.71901,1.24176 -3.86328,1.75 -1.14427,0.5112 -3.15126,1.57558 -4.45899,2.36914 -1.30775,0.79055 -3.24457,1.84546 -4.30859,2.3418 -1.06105,0.49635 -1.93164,1.15379 -1.93164,1.46289 0,0.3091 -0.72368,0.74295 -1.60938,0.96289 -0.88569,0.22291 -1.97027,0.92069 -2.41015,1.55078 -0.44285,0.63009 -1.31335,1.14844 -1.9375,1.14844 -0.62414,0 -1.40829,0.5135 -1.74414,1.14062 -0.33585,0.62712 -1.41466,1.31624 -2.39844,1.5332 -0.98377,0.214 -1.78906,0.73523 -1.78906,1.1543 0,1.09077 3.01244,0.43562 4.33203,-0.9375 0.58551,-0.60929 1.55588,-1.10742 2.15625,-1.10742 0.6033,0 1.41143,-0.38392 1.80078,-0.85352 0.38935,-0.46959 1.47394,-1.02148 2.41016,-1.22656 0.93618,-0.20507 2.0208,-0.75892 2.41015,-1.22852 0.38935,-0.46955 1.02471,-0.8535 1.41406,-0.85351 0.38935,0 3.06821,-1.20262 5.95118,-2.67383 2.88297,-1.4712 5.56658,-2.67578 5.96484,-2.67578 0.3953,0 1.33688,-0.53363 2.0918,-1.1875 0.75493,-0.65387 1.61387,-1.18945 1.91406,-1.18945 0.30018,0 3.00012,-1.17095 6.00195,-2.60352 3.00482,-1.42959 6.19616,-2.77335 7.09375,-2.98437 0.89756,-0.20805 1.63476,-0.63808 1.63477,-0.95313 0,-0.31504 1.18539,-0.87373 2.63281,-1.23633 1.4504,-0.36558 2.77395,-1.02599 2.94336,-1.46289 0.16942,-0.43988 1.25692,-0.97834 2.41601,-1.19531 1.1621,-0.21994 2.11329,-0.63554 2.11329,-0.92383 0,-0.32322 -0.63916,-0.48832 -1.47852,-0.52148 z m -55.25391,26.75781 c -0.83475,-0.0407 -1.87277,0.37869 -2.55078,1.17188 -0.56173,0.65383 -1.42646,1.18843 -1.92578,1.1914 -1.42957,0.003 -4.97801,3.59817 -4.26172,4.31445 0.41015,0.41016 1.20755,0.0992 2.47071,-0.96484 1.02538,-0.86192 2.24728,-1.56836 2.71093,-1.56836 0.46662,0 0.84571,-0.26495 0.84571,-0.58594 0,-0.32396 0.95499,-0.98718 2.12304,-1.47461 1.16805,-0.48743 1.95508,-1.16126 1.75,-1.49414 -0.23294,-0.3756 -0.66126,-0.56543 -1.16211,-0.58984 z m 73.5254,27.65039 c 0.22547,-0.0516 0.43797,0.0258 0.64453,0.23242 0.41016,0.41015 0.24337,1.03966 -0.52344,1.95508 -0.62118,0.74303 -1.59826,1.88715 -2.17188,2.54102 -0.57362,0.65387 -3.61813,4.26565 -6.76562,8.02539 -3.14451,3.75975 -6.43088,7.63834 -7.30469,8.61914 -1.99727,2.24693 -1.82191,4.31004 0.41016,4.82422 12.84848,2.97213 18.99834,21.76846 9.47265,28.95507 -0.94514,0.71034 -2.86567,2.29697 -4.27148,3.52149 -1.40285,1.22745 -2.80801,2.22851 -3.12305,2.22851 -0.31505,0 -2.00043,1.33408 -3.74804,2.96875 -2.93349,2.73436 -4.30676,3.56727 -10.11133,6.10547 -1.14423,0.50229 -4.53908,1.09927 -7.54688,1.32813 -6.04829,0.46365 -5.82815,0.56426 -9.58789,-4.41406 -2.18747,-2.89188 -3.73635,-1.79182 -9.61523,6.8125 -0.81729,1.19479 -2.11591,2.75068 -2.88867,3.45507 -0.77275,0.7044 -1.62216,1.81488 -1.89258,2.46875 -0.38935,0.94217 -0.49958,0.73183 -0.5293,-1.0039 -0.0208,-1.20668 0.22775,-2.3604 0.55469,-2.5625 0.32693,-0.20211 0.5957,-0.88265 0.5957,-1.50977 0,-1.30179 2.51777,-8.10447 4.21485,-11.38867 1.6168,-3.12668 1.44662,-5.55224 -0.5625,-8.11719 -4.96049,-6.32767 -9.34682,-15.25861 -10.02149,-20.40039 -0.27344,-2.09833 -0.15598,-2.27048 3.03906,-4.39258 1.83084,-1.21561 3.33008,-2.28583 3.33008,-2.375 0,-1.11752 -1.03279,-2.05131 -2.29297,-2.08398 l -1.57226,-0.0352 1.43359,-0.57422 c 0.78761,-0.31504 1.72342,-0.96582 2.08008,-1.44726 2.2499,-3.04049 17.12509,-9.48428 17.80273,-7.71289 0.50824,1.31962 1.78185,1.0855 3.24414,-0.59375 2.18451,-2.51442 3.75293,-2.12056 10.9336,2.76562 2.07748,1.41474 2.33094,1.39121 4.39062,-0.42773 0.95109,-0.84108 3.19413,-2.77799 4.98633,-4.30859 1.79219,-1.53065 3.79918,-3.26887 4.45899,-3.86329 0.65978,-0.59443 2.66772,-2.20118 4.46289,-3.56836 1.79813,-1.36718 3.78778,-2.95372 4.42382,-3.52734 0.63603,-0.57065 1.47003,-1.03906 1.85938,-1.03906 0.38935,0 1.04967,-0.41373 1.46875,-0.91602 0.25858,-0.31208 0.49715,-0.49328 0.72266,-0.54492 z m 55.63671,13.79102 c 1.05287,-0.026 1.85374,0.49074 2.41993,1.54882 0.91542,1.70897 4.25408,3.95312 5.88281,3.95313 2.61547,0 14.29188,4.49008 17.92383,6.89453 4.53547,2.99888 4.31994,14.36823 -0.37305,19.90234 -0.4369,0.51418 -0.79688,1.11507 -0.79688,1.33204 0,0.21399 -1.20747,1.97521 -2.68164,3.91601 -1.47715,1.9408 -3.11068,4.85769 -3.63671,6.48047 -0.80842,2.51145 -1.57654,3.43005 -5.10743,6.14063 -4.40173,3.37927 -4.57907,3.54111 -6.35937,5.85937 -1.39393,1.813 -11.02736,2.02828 -14.44531,0.32227 -1.01052,-0.50229 -2.1008,-0.91602 -2.42774,-0.91602 -0.32396,0 -2.42791,-1.05868 -4.67187,-2.35156 -2.24396,-1.29585 -5.02456,-2.52913 -6.17774,-2.7461 -1.60494,-0.30316 -2.73311,-1.18318 -4.80469,-3.74218 -1.48904,-1.83975 -3.23684,-3.59522 -3.88476,-3.9043 -6.37225,-3.01374 -6.41961,-18.47812 -0.0684,-22.4043 1.1086,-0.68359 1.95509,-1.70077 1.95508,-2.3457 0,-1.34935 4.3184,-4.6504 6.71093,-5.12891 0.91244,-0.18427 3.89455,-1.97045 6.62891,-3.9707 2.73139,-1.99727 5.46205,-3.97454 6.06836,-4.39063 0.60334,-0.41309 2.36558,-1.64844 3.91406,-2.74218 1.57374,-1.11157 2.87876,-1.68102 3.93164,-1.70703 z m -40.34961,52.5664 c 0.65333,0.0335 1.45742,0.66132 2.92188,1.98438 1.68818,1.52471 3.16051,3.96725 5.46094,9.06445 1.73275,3.83702 3.60828,7.77897 4.16406,8.75977 2.74031,4.81783 3.61557,14.72095 1.33594,15.04492 -0.71331,0.10105 -1.61655,0.56947 -2.00586,1.03906 -1.21857,1.47121 -5.92828,0.5742 -11.36133,-2.16016 -0.65981,-0.3299 -1.2466,-0.18745 -1.75781,0.42774 -0.58848,0.70737 -1.42562,0.83899 -3.55664,0.55664 -2.54712,-0.3388 -3.09092,-0.17008 -6.30078,1.96094 -3.87566,2.57683 -5.84657,3.08321 -7.97461,2.04297 -0.7787,-0.37746 -2.14547,-0.84783 -3.03711,-1.04102 -4.28581,-0.93027 -3.98393,-6.88719 0.77148,-15.19727 1.2156,-2.12507 2.39721,-4.93249 2.62305,-6.24023 0.22588,-1.30773 0.73361,-2.77913 1.1289,-3.26953 0.39827,-0.49036 1.34657,-2.49738 2.10743,-4.45899 2.90377,-7.47193 3.86517,1.57238 7.28906,4.16407 7.82993,1.72616 5.38418,-10.18793 6.58789,-11.59375 0.51715,-0.6052 0.90626,-0.97039 1.33203,-1.0625 0.0887,-0.0192 0.17814,-0.0263 0.27148,-0.0215 z"
         style="fill:#ffffff;stroke-width:2.97213"
         id="path0" />
    </g>
    <text
       inkscape:export-ydpi="171.64"
       inkscape:export-xdpi="171.64"
       inkscape:export-filename="/home/shadowx/text994.png"
       transform="matrix(0.70719599,0.70701716,-0.7079733,0.70624089,0,0)"
       id="text934"
       y="20.76083"
       x="171.49001"
       style="font-style:normal;font-weight:normal;font-size:6.65972px;line-height:1.25;font-family:sans-serif;letter-spacing:0px;word-spacing:0px;fill:#000000;fill-opacity:1;stroke:none;stroke-width:0.208116"
       xml:space="preserve"><tspan
         style="font-style:normal;font-variant:normal;font-weight:normal;font-stretch:normal;font-family:'Quicksand Light';-inkscape-font-specification:'Quicksand Light, ';fill:#000000;stroke-width:0.208116"
         y="20.76083"
         x="171.49001"
         id="tspan932"
         sodipodi:role="line">Labor omnia</tspan></text>
    <path
       inkscape:export-ydpi="171.64"
       inkscape:export-xdpi="171.64"
       inkscape:export-filename="/home/shadowx/text994.png"
       sodipodi:nodetypes="ccscssscssssssssssscsssc"
       inkscape:connector-curvature="0"
       id="path936"
       d="m 97.224208,119.42565 c -0.247319,-1.02507 -0.625946,-2.68726 -0.34333,-3.75936 0.02826,-0.10709 0.133092,-0.18751 0.148754,-0.29711 0.0908,-0.6347 0.02406,-1.15994 0.148753,-1.78265 0.07568,-0.37775 -0.09342,-0.81523 0,-1.18843 0.242787,-0.96984 0.07989,0.56126 0.297507,-0.74276 0.10022,-0.60054 0.204586,-2.04269 0.444372,-2.52162 0.06273,-0.12526 0.225348,-0.17702 0.297498,-0.2971 0.671067,-1.11694 0.620695,-2.42438 1.188166,-3.55781 0.203991,-0.40742 0.670312,-0.78899 0.892522,-1.18842 1.56057,-2.80524 -0.495933,0.54487 0.74379,-1.93122 0.0628,-0.12527 0.21336,-0.18507 0.29751,-0.2971 0.61759,-0.82235 1.40397,-1.6433 1.93769,-2.529307 0.54019,-0.896769 0.98785,-1.599383 1.63824,-2.378793 0.37666,-0.45139 0.525,-1.026754 0.89251,-1.485538 0.34716,-0.433347 0.85679,-0.744695 1.19005,-1.188422 0.30674,-0.408427 0.48303,-0.920379 0.74378,-1.336984 0.34772,-0.555625 0.80048,-0.850703 1.19002,-1.336984 0.40365,-0.503878 0.66817,-1.112428 1.04129,-1.634097 0.57239,-0.800277 -0.51428,0.855945 0,0 0.59994,-0.465503 2.35586,-3.623985 2.70835,-4.210673 0.67174,-1.118056 4.89723,-1.248154 5.69957,-2.249734 0.37706,-0.470684 -2.48525,-1.584572 -2.12946,-2.058322 0.20086,-0.267458 1.13223,-0.954649 1.13223,-1.007164"
       style="fill:none;stroke:#000000;stroke-width:1.30965;stroke-linecap:butt;stroke-linejoin:miter;stroke-miterlimit:4;stroke-dasharray:none;stroke-opacity:1" />
    <path
       inkscape:export-ydpi="171.64"
       inkscape:export-xdpi="171.64"
       inkscape:export-filename="/home/shadowx/text994.png"
       sodipodi:nodetypes="csssssscc"
       inkscape:connector-curvature="0"
       id="path944"
       d="m 112.03099,99.9063 c -0.14314,0.28375 -0.32952,0.54961 -0.4294,0.85127 -0.0999,0.30183 0,0.85886 0,1.18843 0,0.64374 -0.08,1.29245 0,1.93122 0.0389,0.31075 -0.58103,1.32315 0.2903,1.6989 0.6876,0.29654 1.65681,1.86084 1.65681,1.86084 -0.4106,1.19947 3.07815,0.68212 4.14352,1.6541 0.2655,0.24222 -0.88141,2.75471 -0.47838,3.11604 1.87951,1.68498 3.65212,3.48654 5.82791,4.79024"
       style="fill:none;stroke:#000000;stroke-width:0.837706;stroke-linecap:butt;stroke-linejoin:miter;stroke-miterlimit:4;stroke-dasharray:none;stroke-opacity:1" />
    <path
       inkscape:export-ydpi="171.64"
       inkscape:export-xdpi="171.64"
       inkscape:export-filename="/home/shadowx/text994.png"
       sodipodi:nodetypes="csssssssssscsscsscccc"
       inkscape:connector-curvature="0"
       id="path946"
       d="m 88.198918,93.999864 c -0.150338,-0.440564 0.205075,-0.72285 0.247424,-1.129563 0.03928,-0.376743 -0.04794,-0.798224 -0.0044,-1.167985 0.0385,-0.323992 0.249864,-0.596072 0.345385,-0.904047 0.167723,-0.540788 0.344283,-1.09934 0.530469,-1.639367 0.06458,-0.187297 0.200402,-0.346527 0.25466,-0.537048 0.241219,-0.846954 0.05494,-1.739354 0.311025,-2.564997 0.04637,-0.149566 -0.01059,-0.324831 0.05653,-0.466358 0.107053,-0.225744 1.495709,1.152928 0.353716,-0.572384 -0.21275,-0.321423 -0.947068,-0.937409 -0.841477,-1.308149 0.115059,-0.40404 1.368296,-0.630456 1.591212,-0.967179 0.243233,-0.367419 0.348806,-0.828814 0.572974,-1.208362 0.877044,-1.484889 -0.278914,0.507724 0.615489,-0.777322 0.447031,-0.642287 0.586431,-1.495349 1.018614,-2.148174 0.195652,-0.295541 0.162858,-0.05645 0.424483,-0.37454 0.316582,-0.385219 0.459114,-0.960163 0.735701,-1.377956 0.189238,-0.285868 0.517133,-0.471112 0.74789,-0.711631 0.379246,-0.395293 0.654774,-1.059634 1.068233,-1.38505 0.05442,-0.04273 0.147126,-0.02045 0.195573,-0.06982 0.02354,-0.02394 -0.042,-0.06221 -0.03395,-0.09489 0.0044,-0.01337 0.558214,-0.524657 0.627039,-0.549211"
       style="fill:none;stroke:#000000;stroke-width:1.15234;stroke-linecap:butt;stroke-linejoin:miter;stroke-miterlimit:4;stroke-dasharray:none;stroke-opacity:1" />
    <ellipse
       inkscape:export-ydpi="171.64"
       inkscape:export-xdpi="171.64"
       inkscape:export-filename="/home/shadowx/text994.png"
       ry="0.70788419"
       rx="0.13336411"
       cy="51.949543"
       cx="99.546089"
       id="path950"
       style="fill:#000000;fill-opacity:1;stroke:none;stroke-width:1.15234;stroke-miterlimit:4;stroke-dasharray:none;stroke-opacity:1" />
    <g
       style="font-style:normal;font-variant:normal;font-weight:normal;font-stretch:normal;font-size:6.65972px;line-height:1.25;font-family:'Quicksand Light';-inkscape-font-specification:'Quicksand Light, ';letter-spacing:0px;word-spacing:0px;fill:#000000;fill-opacity:1;stroke:none;stroke-width:0.208116"
       id="text994"
       transform="scale(1.000676,0.99932446)"
       aria-label="CTF Team">
      <path
         id="path873"
         style="font-style:normal;font-variant:normal;font-weight:normal;font-stretch:normal;font-family:'Quicksand Light';-inkscape-font-specification:'Quicksand Light, ';fill:#ffffff;stroke-width:0.208116"
         d="m 226.88216,118.09092 q 0.0599,0.0466 0.0599,0.10656 0,0.0533 -0.0266,0.0866 -0.04,0.0533 -0.0999,0.0533 -0.0266,0 -0.0799,-0.0266 -0.61935,-0.41956 -1.31196,-0.41956 -0.55942,0 -1.03226,0.27971 -0.46618,0.27305 -0.73923,0.76587 -0.27305,0.48616 -0.27305,1.09885 0,0.61269 0.27305,1.10551 0.27305,0.48616 0.73923,0.76587 0.47284,0.27305 1.03226,0.27305 0.69927,0 1.3053,-0.4129 0.0333,-0.0266 0.0799,-0.0266 0.0666,0 0.10655,0.0533 0.0266,0.0333 0.0266,0.0799 0,0.0666 -0.0533,0.10656 -0.25973,0.18647 -0.67264,0.31967 -0.40624,0.13319 -0.7925,0.13319 -0.63268,0 -1.16545,-0.31301 -0.53278,-0.313 -0.84579,-0.8591 -0.31301,-0.55276 -0.31301,-1.22539 0,-0.67263 0.31301,-1.21873 0.31301,-0.55275 0.84579,-0.86576 0.53277,-0.31301 1.16545,-0.31301 0.39958,0 0.77252,0.11988 0.37961,0.11987 0.68596,0.33298 z" />
      <path
         id="path875"
         style="font-style:normal;font-variant:normal;font-weight:normal;font-stretch:normal;font-family:'Quicksand Light';-inkscape-font-specification:'Quicksand Light, ';fill:#ffffff;stroke-width:0.208116"
         d="m 230.77808,117.70466 q 0.0533,0 0.0932,0.04 0.04,0.0333 0.04,0.0866 0,0.0599 -0.04,0.0932 -0.0333,0.0333 -0.0932,0.0333 h -1.48511 v 4.27554 q 0,0.0533 -0.04,0.0932 -0.04,0.04 -0.0932,0.04 -0.0599,0 -0.0999,-0.04 -0.0333,-0.0399 -0.0333,-0.0932 v -4.27554 h -1.48512 q -0.0533,0 -0.0932,-0.0333 -0.04,-0.04 -0.04,-0.0932 0,-0.0533 0.04,-0.0866 0.04,-0.04 0.0932,-0.04 z" />
      <path
         id="path877"
         style="font-style:normal;font-variant:normal;font-weight:normal;font-stretch:normal;font-family:'Quicksand Light';-inkscape-font-specification:'Quicksand Light, ';fill:#ffffff;stroke-width:0.208116"
         d="m 234.45424,117.70466 q 0.0533,0 0.0932,0.04 0.04,0.04 0.04,0.0932 0,0.0599 -0.04,0.0999 -0.04,0.0333 -0.0932,0.0333 h -2.37752 v 1.83808 h 2.07783 q 0.0533,0 0.0932,0.04 0.04,0.04 0.04,0.0932 0,0.0599 -0.04,0.0999 -0.04,0.0333 -0.0932,0.0333 h -2.07783 v 2.15775 q 0,0.0533 -0.04,0.0932 -0.0333,0.04 -0.0932,0.04 -0.0599,0 -0.0999,-0.04 -0.0333,-0.0399 -0.0333,-0.0932 v -4.39542 q 0,-0.0533 0.04,-0.0932 0.04,-0.04 0.0932,-0.04 z" />
      <path
         id="path879"
         style="font-style:normal;font-variant:normal;font-weight:normal;font-stretch:normal;font-family:'Quicksand Light';-inkscape-font-specification:'Quicksand Light, ';fill:#ffffff;stroke-width:0.208116"
         d="m 240.32144,117.70466 q 0.0533,0 0.0932,0.04 0.04,0.0333 0.04,0.0866 0,0.0599 -0.04,0.0932 -0.0333,0.0333 -0.0932,0.0333 h -1.48512 v 4.27554 q 0,0.0533 -0.04,0.0932 -0.04,0.04 -0.0932,0.04 -0.0599,0 -0.0999,-0.04 -0.0333,-0.0399 -0.0333,-0.0932 v -4.27554 h -1.48511 q -0.0533,0 -0.0932,-0.0333 -0.04,-0.04 -0.04,-0.0932 0,-0.0533 0.04,-0.0866 0.04,-0.04 0.0932,-0.04 z" />
      <path
         id="path881"
         style="font-style:normal;font-variant:normal;font-weight:normal;font-stretch:normal;font-family:'Quicksand Light';-inkscape-font-specification:'Quicksand Light, ';fill:#ffffff;stroke-width:0.208116"
         d="m 243.07189,121.5673 q 0.0466,0 0.0799,0.0399 0.0333,0.0333 0.0333,0.0799 0,0.0466 -0.0266,0.0799 -0.21977,0.29303 -0.5461,0.4795 -0.32632,0.18647 -0.69927,0.18647 -0.49948,0 -0.88574,-0.21311 -0.38627,-0.21311 -0.60604,-0.60604 -0.21311,-0.39292 -0.21311,-0.91238 0,-0.53277 0.20645,-0.93236 0.21311,-0.40624 0.55942,-0.61935 0.34631,-0.21311 0.73923,-0.21311 0.39292,0 0.72591,0.17315 0.33964,0.16649 0.55276,0.50614 0.21311,0.33964 0.22643,0.83912 0,0.0533 -0.04,0.0999 -0.04,0.04 -0.0932,0.04 h -2.61727 v 0.0866 q 0,0.41291 0.16649,0.75921 0.1665,0.33965 0.49282,0.53944 0.32633,0.19979 0.78585,0.19979 0.31967,0 0.59938,-0.15317 0.28636,-0.15984 0.4462,-0.39959 0.0466,-0.0599 0.11321,-0.0599 z m -1.35858,-2.3642 q -0.24641,0 -0.50614,0.13319 -0.25307,0.12653 -0.45286,0.38626 -0.19313,0.25307 -0.25973,0.61936 h 2.45078 v -0.0599 q -0.0333,-0.33965 -0.21977,-0.5794 -0.17982,-0.2464 -0.45286,-0.37294 -0.26639,-0.12653 -0.55942,-0.12653 z" />
      <path
         id="path883"
         style="font-style:normal;font-variant:normal;font-weight:normal;font-stretch:normal;font-family:'Quicksand Light';-inkscape-font-specification:'Quicksand Light, ';fill:#ffffff;stroke-width:0.208116"
         d="m 246.84128,119.04326 q 0.0599,0 0.0932,0.04 0.04,0.04 0.04,0.0932 v 3.05681 q 0,0.0533 -0.04,0.0932 -0.04,0.04 -0.0932,0.04 -0.0599,0 -0.0999,-0.04 -0.0333,-0.0399 -0.0333,-0.0932 v -0.59938 q -0.1665,0.33965 -0.5128,0.57274 -0.34631,0.22643 -0.76587,0.22643 -0.43954,0 -0.79251,-0.22643 -0.35296,-0.23309 -0.55275,-0.63267 -0.1998,-0.40625 -0.1998,-0.90573 0,-0.49282 0.1998,-0.88574 0.20645,-0.39958 0.55941,-0.61935 0.35297,-0.22643 0.78585,-0.22643 0.43288,0 0.77919,0.22643 0.3463,0.22643 0.49948,0.60603 v -0.59271 q 0,-0.0533 0.0333,-0.0932 0.04,-0.04 0.0999,-0.04 z m -1.39854,3.13673 q 0.36628,0 0.65931,-0.19313 0.29969,-0.19979 0.46618,-0.5461 0.16649,-0.3463 0.16649,-0.77253 0,-0.40624 -0.16649,-0.74588 -0.16649,-0.33965 -0.46618,-0.53278 -0.29303,-0.19979 -0.65931,-0.19979 -0.36629,0 -0.66597,0.19313 -0.29303,0.18647 -0.45952,0.52612 -0.1665,0.33298 -0.1665,0.7592 0,0.42623 0.1665,0.77253 0.16649,0.34631 0.45952,0.5461 0.29302,0.19313 0.66597,0.19313 z" />
      <path
         id="path885"
         style="font-style:normal;font-variant:normal;font-weight:normal;font-stretch:normal;font-family:'Quicksand Light';-inkscape-font-specification:'Quicksand Light, ';fill:#ffffff;stroke-width:0.208116"
         d="m 251.86271,119.0033 q 0.57273,0 0.86576,0.35963 0.29969,0.35962 0.29969,0.93236 v 1.93798 q 0,0.0533 -0.04,0.0932 -0.0333,0.04 -0.0932,0.04 -0.0599,0 -0.0999,-0.04 -0.0333,-0.0399 -0.0333,-0.0932 v -1.91134 q 0,-0.47284 -0.23309,-0.76587 -0.22643,-0.29969 -0.69261,-0.29969 -0.28637,0 -0.56608,0.14652 -0.27305,0.14651 -0.4462,0.39292 -0.17315,0.23975 -0.17315,0.52612 v 1.91134 q 0,0.0533 -0.04,0.0932 -0.0333,0.04 -0.0932,0.04 -0.0599,0 -0.0999,-0.04 -0.0333,-0.0399 -0.0333,-0.0932 v -1.94464 q 0,-0.45952 -0.21977,-0.74589 -0.21977,-0.28637 -0.66598,-0.28637 -0.2797,0 -0.54609,0.13986 -0.26639,0.13985 -0.43954,0.3796 -0.1665,0.23975 -0.1665,0.5128 v 1.94464 q 0,0.0533 -0.04,0.0932 -0.04,0.04 -0.0932,0.04 -0.0599,0 -0.0999,-0.04 -0.0333,-0.0399 -0.0333,-0.0932 v -3.05681 q 0,-0.0533 0.04,-0.0932 0.04,-0.04 0.0932,-0.04 0.0599,0 0.0932,0.04 0.04,0.04 0.04,0.0932 v 0.46618 q 0.19313,-0.27971 0.49948,-0.45952 0.31301,-0.17982 0.65265,-0.17982 0.36629,0 0.65266,0.18648 0.28637,0.18647 0.41956,0.54609 0.13985,-0.30634 0.52612,-0.51945 0.39292,-0.21312 0.76587,-0.21312 z" />
    </g>
  </g>
</svg>
